<?xml version="1.0" encoding="utf-8"?>
<!-- Generator: Adobe Illustrator 25.0.0, SVG Export Plug-In . SVG Version: 6.00 Build 0)  -->
<svg version="1.1" id="Capa_1" xmlns="http://www.w3.org/2000/svg" xmlns:xlink="http://www.w3.org/1999/xlink" x="0px" y="0px"
	 viewBox="0 0 511.66 185.87" style="enable-background:new 0 0 511.66 185.87;" xml:space="preserve">
<style type="text/css">
	.st0{fill:#017E93;}
	.st1{fill:#035468;}
	.st2{fill:#FFFFFF;}
</style>
<path class="st0" d="M126.73,159.82l-93.45-6.1c-8.64-0.56-15.24-8.09-14.68-16.73l6.1-93.45c0.56-8.64,8.09-15.24,16.73-14.68
	l93.45,6.1c8.64,0.56,15.24,8.09,14.68,16.73l-6.1,93.45C142.9,153.77,135.37,160.38,126.73,159.82z"/>
<path class="st1" d="M137.15,151.7L44,161.43c-8.61,0.9-16.39-5.41-17.29-14.02l-9.73-93.15c-0.9-8.61,5.41-16.39,14.02-17.29
	l93.15-9.73c8.61-0.9,16.39,5.41,17.29,14.02l9.73,93.15C152.07,143.02,145.76,150.8,137.15,151.7z"/>
<g>
	<path class="st2" d="M72.87,86.7c-0.12-0.22-0.2-0.37-0.28-0.51c-1.87-3.17-5.57-4.14-8.48-2.52c0.11-1.28-0.01-2.58-0.37-3.83
		c-0.17-0.58-0.39-1.15-0.7-1.71c-0.16-0.28-0.34-0.56-0.61-0.85c-0.06-0.07-0.14-0.14-0.22-0.22c-0.07-0.07-0.18-0.15-0.29-0.22
		c-0.05-0.04-0.13-0.08-0.2-0.11l-0.11-0.05c-0.04-0.02-0.09-0.03-0.14-0.05c-0.21-0.06-0.37-0.07-0.53-0.07
		c-0.33,0.01-0.6,0.11-0.81,0.21c-0.22,0.1-0.38,0.22-0.52,0.33c-0.29,0.22-0.51,0.44-0.71,0.66c-0.41,0.43-0.76,0.84-1.11,1.25
		c-0.7,0.82-1.39,1.6-2.12,2.34c-0.73,0.75-1.49,1.46-2.28,2.11c-0.4,0.33-0.81,0.64-1.23,0.95c-0.43,0.32-0.88,0.62-1.36,1.02
		c-0.48,0.4-0.97,0.96-1.27,1.56c-0.31,0.6-0.5,1.19-0.64,1.75c-0.08,0.29-0.13,0.56-0.19,0.84c-0.06,0.28-0.1,0.55-0.15,0.83
		c-0.09,0.55-0.17,1.1-0.23,1.65c-0.13,1.11-0.19,2.25-0.14,3.39c0.04,1.14,0.77,10.52,0.98,13.25c0.13,1.74-0.11,3.39-1.01,5.02
		c-2.92-0.77-5.48-0.2-7.37,2.15c-1.27,1.58-2.42,3.31-3.35,5.12c-1.59,3.1-0.71,6.63,2.05,8.45c7.6,5.02,15.23,10,22.88,14.94
		c2.72,1.75,6.42,1.12,8.41-1.44c1.29-1.66,2.45-3.44,3.46-5.28c1.25-2.27,0.97-4.58-0.43-6.75c-0.21-0.33-0.46-0.64-0.8-1.1
		c1.03-1,1.97-2.1,3.09-2.96c2.25-1.73,4.62-3.3,6.89-5c0.91-0.67,1.87-1.37,2.52-2.26c1.88-2.6,5.87-8.5,7.52-11.25
		c1.65-2.75,1.1-5.94-1.39-7.96c-1.11-0.9-2.63-1.28-4.15-1.98c-0.46-3.13-2.5-5.06-5.97-5.59c-0.09-2.18-0.86-4.02-2.7-5.33
		C76.95,86.21,74.96,86.07,72.87,86.7z M70.55,130.56c2.59,1.7,3.17,4.45,1.49,7.04c-0.75,1.15-1.49,2.3-2.25,3.45
		c-1.59,2.39-4.33,3.09-6.74,1.54c-7.46-4.81-14.89-9.66-22.29-14.56c-2.36-1.56-2.79-4.34-1.26-6.71c0.8-1.24,1.6-2.47,2.42-3.7
		c1.53-2.31,4.34-2.91,6.68-1.4c3.71,2.4,7.41,4.83,11.11,7.25C63.31,125.83,66.93,128.19,70.55,130.56z M78.41,95.57
		c0.92-0.21,1.98-0.6,3.05-0.66c1.13-0.06,2.12,0.5,2.91,1.36c1.34,1.45,1.47,3.31,0.32,5.58c0.36-0.2,0.64-0.37,0.92-0.51
		c1.71-0.87,3.8-0.53,5.08,0.83c1.38,1.46,1.63,3.6,0.56,5.28c-1.5,2.34-5.11,7.96-6.72,10.23c-0.64,0.91-1.53,1.68-2.43,2.36
		c-2.29,1.73-4.68,3.33-6.95,5.08c-1.1,0.85-2.08,1.86-3.02,2.89c-0.58,0.63-1.15,0.76-1.85,0.36c-0.41-0.23-0.79-0.5-1.18-0.76
		c-5.91-3.86-11.83-7.73-17.74-11.59c-1.41-0.92-1.36-1.14-0.9-2.71c0.4-1.35,0.65-2.81,0.63-4.21c-0.03-1.94-0.16-3.87-0.3-5.81
		c0,0-0.19-3.69-0.31-4.76c-0.13-1.07-0.24-2.11-0.26-3.12c-0.02-1.02,0.06-2.04,0.19-3.07c0.15-1.02,0.31-2.09,0.56-3.04
		c0.12-0.48,0.28-0.91,0.47-1.28c0.19-0.36,0.42-0.63,0.77-0.92c0.35-0.29,0.79-0.6,1.23-0.92c0.44-0.33,0.89-0.67,1.33-1.03
		c0.87-0.72,1.69-1.48,2.46-2.28c0.78-0.8,1.5-1.64,2.19-2.47c0.35-0.41,0.69-0.82,1.02-1.18c0.16-0.18,0.33-0.34,0.47-0.45
		c0.01-0.01,0.02-0.02,0.03-0.03c0.09,0.11,0.2,0.26,0.29,0.42c0.21,0.38,0.4,0.81,0.54,1.26c0.56,1.8,0.5,3.81-0.18,5.6
		c0,0,0,0,0,0l0,0c-0.01,0.03-0.02,0.06-0.03,0.08c-0.17,0.46-0.39,0.89-0.64,1.31l-0.19,0.32l-0.21,0.34l-0.43,0.68
		c-0.57,0.91-1.12,1.84-1.67,2.77c-1.08,1.87-1.97,4.66-2.9,6.63l0.42,0.27c1.43-1.64,2.55-4.28,3.82-6.03
		c0.63-0.88,1.26-1.75,1.87-2.64l0.45-0.67l0.23-0.33l0.23-0.37c0.2-0.33,0.39-0.67,0.56-1.02c0.04-0.06,0.08-0.12,0.11-0.17
		c1.39-2.12,3.32-2.82,5.5-1.99c1.96,0.75,2.91,2.64,2.55,5.09c-0.01,0.05,0.03,0.11,0.05,0.17c1.93-2.29,4.3-2.84,6.29-1.45
		C79.74,90.54,79.98,92.82,78.41,95.57z"/>
	<path class="st2" d="M80.06,59.27c-1.48,1.71-1.78,3.68-1.35,5.82c-3.24,1.34-4.76,3.7-4.46,6.85c-1.31,1.04-2.7,1.78-3.56,2.91
		c-1.94,2.56-1.71,5.78,0.55,8.06c2.26,2.28,7.54,7.06,9.99,9.13c0.84,0.71,1.95,1.16,2.99,1.59c2.62,1.1,5.29,2.06,7.89,3.21
		c1.29,0.57,2.46,1.41,3.7,2.14c-0.22,0.53-0.38,0.89-0.51,1.26c-0.83,2.44-0.56,4.74,1.2,6.65c1.42,1.54,2.98,3,4.62,4.3
		c2.54,2.02,6.29,1.74,8.51-0.61c6.25-6.63,12.47-13.28,18.65-19.97c2.24-2.43,2.25-6.07-0.03-8.7c-1.33-1.53-2.86-2.94-4.47-4.17
		c-2.39-1.83-5.02-1.77-7.67-0.32c-1.26-1.37-1.89-2.91-2.18-4.63c-0.45-2.71-1.98-11.99-2.21-13.1c-0.22-1.12-0.56-2.21-0.95-3.25
		c-0.19-0.53-0.4-1.04-0.62-1.55c-0.12-0.26-0.22-0.51-0.35-0.77c-0.13-0.26-0.24-0.51-0.39-0.77c-0.28-0.52-0.6-1.04-1.04-1.55
		c-0.44-0.51-1.05-0.94-1.61-1.21c-0.56-0.28-1.07-0.46-1.56-0.67c-0.49-0.2-0.96-0.4-1.42-0.63c-0.93-0.44-1.84-0.95-2.72-1.5
		c-0.89-0.55-1.75-1.14-2.62-1.77c-0.44-0.31-0.88-0.63-1.38-0.95c-0.25-0.16-0.52-0.32-0.85-0.47c-0.17-0.07-0.35-0.14-0.59-0.19
		c-0.23-0.05-0.52-0.08-0.84-0.01c-0.16,0.04-0.31,0.08-0.5,0.19c-0.04,0.03-0.09,0.05-0.13,0.08l-0.09,0.07
		c-0.06,0.05-0.13,0.11-0.17,0.15c-0.08,0.09-0.17,0.2-0.23,0.28c-0.06,0.09-0.12,0.18-0.16,0.26c-0.18,0.34-0.29,0.66-0.38,0.97
		c-0.17,0.62-0.25,1.23-0.27,1.83c-0.05,1.3,0.15,2.59,0.56,3.8c-3.21-0.88-6.58,0.94-7.64,4.47c-0.05,0.16-0.09,0.32-0.15,0.56
		C83.43,56.96,81.53,57.57,80.06,59.27z M107.18,89.63c3.02-3.23,6.02-6.47,9.05-9.69c1.91-2.03,4.78-2.12,6.82-0.24
		c1.08,1,2.16,2.01,3.23,3.02c2.06,1.93,2.3,4.73,0.38,6.81c-6.01,6.53-12.07,13.01-18.17,19.47c-1.97,2.08-4.8,2.06-6.91,0.12
		c-1.01-0.93-2.01-1.87-3.01-2.81c-2.25-2.12-2.34-4.93-0.23-7.2C101.28,95.94,104.23,92.79,107.18,89.63z M81.58,60.47
		c1.6-1.82,4.04-1.86,6.46-0.09c0-0.06,0.03-0.12,0.01-0.17c-0.94-2.29-0.47-4.36,1.26-5.55c1.92-1.32,3.97-1.11,5.82,0.62
		c0.05,0.05,0.1,0.09,0.15,0.14c0.25,0.3,0.51,0.59,0.79,0.86l0.32,0.3l0.3,0.27l0.6,0.54c0.8,0.72,1.62,1.42,2.44,2.12
		c1.65,1.39,3.37,3.68,5.15,4.94l0.34-0.36c-1.37-1.69-2.9-4.19-4.4-5.74c-0.76-0.77-1.51-1.54-2.28-2.29l-0.58-0.56l-0.29-0.28
		l-0.26-0.26c-0.34-0.35-0.66-0.72-0.93-1.12c-0.02-0.02-0.03-0.05-0.05-0.07l0,0c0,0,0,0,0,0c-1.09-1.57-1.62-3.52-1.51-5.39
		c0.03-0.47,0.11-0.94,0.22-1.36c0.05-0.18,0.12-0.35,0.18-0.47c0.01,0.01,0.02,0.01,0.04,0.02c0.16,0.07,0.36,0.19,0.56,0.32
		c0.41,0.27,0.84,0.58,1.27,0.9c0.87,0.64,1.78,1.29,2.72,1.87c0.94,0.59,1.92,1.14,2.93,1.63c0.51,0.25,1.03,0.47,1.53,0.68
		c0.5,0.21,1.01,0.4,1.41,0.6c0.41,0.2,0.7,0.4,0.97,0.71c0.27,0.31,0.53,0.69,0.76,1.13c0.47,0.86,0.88,1.86,1.27,2.81
		c0.38,0.97,0.7,1.94,0.92,2.93c0.23,0.99,0.36,2.03,0.5,3.09c0.13,1.07,0.83,4.69,0.83,4.69c0.33,1.91,0.66,3.82,1.09,5.71
		c0.31,1.37,0.91,2.72,1.62,3.94c0.82,1.41,0.92,1.62-0.23,2.85c-4.82,5.16-9.64,10.33-14.46,15.49c-0.32,0.34-0.62,0.7-0.97,1.02
		c-0.59,0.55-1.17,0.56-1.89,0.09c-1.16-0.77-2.36-1.52-3.63-2.08c-2.63-1.16-5.33-2.14-7.97-3.28c-1.03-0.44-2.08-0.98-2.92-1.71
		c-2.1-1.82-6.95-6.41-8.96-8.33c-1.44-1.37-1.7-3.51-0.71-5.26c0.92-1.63,2.87-2.46,4.74-2.02c0.31,0.07,0.62,0.17,1.02,0.28
		c-1.66-1.93-1.98-3.77-1.03-5.49c0.56-1.02,1.39-1.81,2.5-2.01c1.06-0.2,2.18-0.07,3.12-0.09C80.17,64.72,79.85,62.44,81.58,60.47z
		"/>
</g>
<g>
	<path d="M172.81,155.21c-3.15,0-5.69-0.98-7.6-2.96c-1.92-1.97-2.87-4.42-2.87-7.35v-97.6c0-2.93,1.01-5.37,3.04-7.35
		c2.03-1.97,4.61-2.96,7.77-2.96c3.15,0,5.66,0.99,7.51,2.96c1.86,1.97,2.79,4.42,2.79,7.35v97.6c0,2.93-0.96,5.38-2.87,7.35
		C178.66,154.23,176.07,155.21,172.81,155.21z M245.76,36.16c2.7,0,4.92,1.1,6.67,3.29c1.74,2.2,2.62,4.42,2.62,6.67
		c0,2.36-1.01,4.56-3.04,6.59l-70.76,67.72l-0.84-24.15l57.08-56.23C240.07,37.46,242.83,36.16,245.76,36.16z M243.73,155.21
		c-3.15,0-5.69-1.29-7.6-3.88l-39.01-51.34l15.37-15.7l40.36,53.36c1.58,2.14,2.36,4.45,2.36,6.92c0,3.15-1.18,5.72-3.55,7.68
		C249.31,154.23,246.66,155.21,243.73,155.21z"/>
	<path d="M333.96,63.18c2.93,0,5.35,0.96,7.26,2.87c1.91,1.92,2.87,4.39,2.87,7.43v71.43c0,2.93-0.96,5.38-2.87,7.35
		c-1.92,1.97-4.34,2.96-7.26,2.96c-2.93,0-5.35-0.98-7.26-2.96c-1.92-1.97-2.87-4.42-2.87-7.35v-8.27l3.72,1.52
		c0,1.46-0.79,3.24-2.36,5.32c-1.58,2.08-3.72,4.14-6.42,6.16c-2.7,2.03-5.88,3.74-9.54,5.15c-3.66,1.41-7.63,2.11-11.91,2.11
		c-7.77,0-14.8-2-21.11-5.99c-6.31-3.99-11.29-9.51-14.94-16.55c-3.66-7.03-5.49-15.11-5.49-24.23c0-9.23,1.83-17.36,5.49-24.4
		c3.66-7.03,8.58-12.55,14.78-16.55c6.19-3.99,13.06-5.99,20.6-5.99c4.84,0,9.29,0.73,13.34,2.2c4.05,1.46,7.57,3.32,10.55,5.57
		c2.98,2.25,5.29,4.53,6.92,6.84c1.63,2.31,2.45,4.25,2.45,5.83l-6.08,2.2V73.48c0-2.93,0.96-5.37,2.87-7.35
		C328.61,64.17,331.03,63.18,333.96,63.18z M299.85,138.32c4.95,0,9.29-1.24,13-3.71c3.72-2.48,6.61-5.85,8.7-10.13
		c2.08-4.28,3.12-9.06,3.12-14.35c0-5.4-1.04-10.24-3.12-14.52c-2.08-4.28-4.98-7.65-8.7-10.13c-3.71-2.48-8.05-3.72-13-3.72
		c-4.84,0-9.12,1.24-12.83,3.72c-3.72,2.48-6.62,5.85-8.7,10.13c-2.08,4.28-3.12,9.12-3.12,14.52c0,5.29,1.04,10.08,3.12,14.35
		c2.08,4.28,4.98,7.66,8.7,10.13C290.73,137.09,295.01,138.32,299.85,138.32z"/>
	<path d="M356.45,66.56h40.02c2.7,0,4.95,0.9,6.75,2.7c1.8,1.8,2.7,4.05,2.7,6.75c0,2.59-0.9,4.76-2.7,6.5
		c-1.8,1.75-4.05,2.62-6.75,2.62h-40.02c-2.7,0-4.96-0.9-6.75-2.7c-1.8-1.8-2.7-4.05-2.7-6.75c0-2.59,0.9-4.75,2.7-6.5
		C351.5,67.43,353.75,66.56,356.45,66.56z M374.52,45.45c2.93,0,5.32,0.99,7.18,2.96c1.86,1.97,2.79,4.42,2.79,7.35v75.15
		c0,1.58,0.31,2.87,0.93,3.88c0.62,1.01,1.46,1.75,2.53,2.2c1.07,0.45,2.22,0.68,3.46,0.68c1.35,0,2.59-0.25,3.71-0.76
		c1.12-0.51,2.42-0.76,3.88-0.76c1.58,0,3.01,0.73,4.31,2.2c1.29,1.46,1.94,3.49,1.94,6.08c0,3.15-1.72,5.74-5.15,7.77
		c-3.44,2.03-7.12,3.04-11.06,3.04c-2.36,0-4.98-0.2-7.85-0.59c-2.87-0.39-5.57-1.35-8.11-2.87c-2.53-1.52-4.64-3.85-6.33-7.01
		c-1.69-3.15-2.53-7.49-2.53-13V55.75c0-2.93,0.98-5.37,2.96-7.35C369.14,46.44,371.59,45.45,374.52,45.45z"/>
	<path d="M485.9,63.18c2.93,0,5.35,0.96,7.26,2.87c1.91,1.92,2.87,4.39,2.87,7.43v71.43c0,2.93-0.96,5.38-2.87,7.35
		c-1.92,1.97-4.34,2.96-7.26,2.96c-2.93,0-5.35-0.98-7.26-2.96c-1.92-1.97-2.87-4.42-2.87-7.35v-8.27l3.72,1.52
		c0,1.46-0.79,3.24-2.36,5.32c-1.58,2.08-3.72,4.14-6.42,6.16c-2.7,2.03-5.88,3.74-9.54,5.15c-3.66,1.41-7.63,2.11-11.91,2.11
		c-7.77,0-14.8-2-21.11-5.99c-6.31-3.99-11.29-9.51-14.94-16.55c-3.66-7.03-5.49-15.11-5.49-24.23c0-9.23,1.83-17.36,5.49-24.4
		c3.66-7.03,8.58-12.55,14.78-16.55c6.19-3.99,13.06-5.99,20.6-5.99c4.84,0,9.29,0.73,13.34,2.2c4.05,1.46,7.57,3.32,10.55,5.57
		c2.98,2.25,5.29,4.53,6.92,6.84c1.63,2.31,2.45,4.25,2.45,5.83l-6.08,2.2V73.48c0-2.93,0.96-5.37,2.87-7.35
		C480.55,64.17,482.97,63.18,485.9,63.18z M453.31,58.96c-0.56,0-1.18-0.08-1.86-0.25c-0.68-0.17-1.35-0.42-2.03-0.76l-16.89-8.95
		c-2.03-1.12-3.58-2.47-4.64-4.05c-1.07-1.58-1.6-3.21-1.6-4.9c0-2.59,1.01-4.61,3.04-6.08c2.03-1.46,3.99-2.2,5.91-2.2
		c1.58,0,3.07,0.37,4.47,1.1c1.41,0.73,2.67,1.6,3.8,2.62l14.52,12.83c1.58,1.46,2.36,2.98,2.36,4.56c0,1.8-0.65,3.27-1.94,4.39
		C457.17,58.4,455.45,58.96,453.31,58.96z M451.79,138.32c4.95,0,9.29-1.24,13-3.71c3.72-2.48,6.61-5.85,8.7-10.13
		c2.08-4.28,3.12-9.06,3.12-14.35c0-5.4-1.04-10.24-3.12-14.52c-2.08-4.28-4.98-7.65-8.7-10.13c-3.71-2.48-8.05-3.72-13-3.72
		c-4.84,0-9.12,1.24-12.83,3.72c-3.72,2.48-6.62,5.85-8.7,10.13c-2.08,4.28-3.12,9.12-3.12,14.52c0,5.29,1.04,10.08,3.12,14.35
		c2.08,4.28,4.98,7.66,8.7,10.13C442.67,137.09,446.95,138.32,451.79,138.32z"/>
</g>
</svg>
